<?xml version="1.0" encoding="UTF-8"?>
<svg version="1.1" xmlns="http://www.w3.org/2000/svg" width="512" height="512">
<path d="M0 0 C7.02640853 4.02159452 11.1298723 9.27154594 13.39453125 17.046875 C15.13728106 25.41536229 12.63173279 32.65483566 8.80859375 40.03515625 C9.27007812 39.70902344 9.7315625 39.38289063 10.20703125 39.046875 C21.65371608 31.3780486 34.24754089 29.9510345 47.65234375 32.296875 C53.74890651 33.72292743 59.24908177 36.21127715 64.80859375 39.03515625 C64.53144531 38.5040625 64.25429688 37.97296875 63.96875 37.42578125 C63.60652344 36.719375 63.24429688 36.01296875 62.87109375 35.28515625 C62.51144531 34.5890625 62.15179688 33.89296875 61.78125 33.17578125 C58.76532516 26.53832418 59.31151379 20.03942662 61.76953125 13.30859375 C64.90309081 6.45245967 69.004875 2.18502604 75.80859375 -0.96484375 C82.42034108 -3.00872415 90.39547649 -2.95854056 96.78125 -0.203125 C101.30530717 2.56012379 104.99300903 6.39161078 108.80859375 10.03515625 C110.07227633 11.1474996 111.34268873 12.252265 112.62109375 13.34765625 C116.7889518 16.97663973 120.83457739 20.73344596 124.88769531 24.48925781 C128.98517025 28.28374211 133.12253008 32.0304671 137.28125 35.7578125 C140.65311874 38.79614244 143.99850342 41.86309908 147.33251953 44.94287109 C149.73065453 47.15349441 152.14476876 49.32457535 154.6171875 51.453125 C164.12561199 59.66173514 169.75946623 68.78063356 170.8046875 81.5234375 C170.82709229 95.92971778 165.06881673 105.96394407 156.37109375 116.97265625 C154.9335596 118.82448432 153.49738739 120.67737034 152.0625 122.53125 C150.98766357 123.91546143 150.98766357 123.91546143 149.89111328 125.32763672 C146.79791498 129.34915714 143.80021947 133.43782635 140.80859375 137.53515625 C135.13273732 145.28848238 129.34060354 152.94741358 123.48828125 160.56835938 C99.2103799 192.24500132 109.71351097 185.59586813 108.80859375 248.03515625 C60.95859375 248.03515625 13.10859375 248.03515625 -36.19140625 248.03515625 C-36.52140625 224.93515625 -36.85140625 201.83515625 -37.19140625 178.03515625 C-45.11140625 167.64015625 -45.11140625 167.64015625 -53.19140625 157.03515625 C-60.19140625 147.53515625 -60.19140625 147.53515625 -63.609375 142.87109375 C-66.82553392 138.50560059 -70.109879 134.19495972 -73.40917969 129.89208984 C-98.90906406 96.63524764 -98.90906406 96.63524764 -96.78515625 78.58203125 C-94.01974589 63.37227427 -85.84584732 54.82399748 -74.515625 45.07421875 C-71.56730203 42.4876228 -68.69226019 39.82678911 -65.81640625 37.16015625 C-61.15009651 32.83556108 -56.45179095 28.55161929 -51.7109375 24.30859375 C-49.40083637 22.22413041 -47.11448294 20.11593605 -44.83300781 18.00024414 C-40.25243848 13.76402862 -35.6227783 9.58812205 -30.87890625 5.53515625 C-29.49251953 4.3440625 -29.49251953 4.3440625 -28.078125 3.12890625 C-19.78381997 -2.88699023 -9.47283279 -4.2342184 0 0 Z M-5.62890625 50.97265625 C-9.89092982 55.00780819 -14.16583602 58.9299069 -18.75390625 62.59765625 C-25.90875025 68.32579028 -32.71011039 74.55386039 -39.19140625 81.03515625 C-34.41583143 86.91913609 -29.59835455 92.7606001 -24.69140625 98.53515625 C-11.50414441 114.06604901 -11.50414441 114.06604901 -8.19140625 119.03515625 C-5.56443561 119.25653018 -3.18246661 119.3167765 -0.56640625 119.22265625 C0.14 119.20912109 0.84640625 119.19558594 1.57421875 119.18164062 C3.31933503 119.14626665 5.06405983 119.09245846 6.80859375 119.03515625 C5.96296875 118.08640625 5.11734375 117.13765625 4.24609375 116.16015625 C-7.43296048 102.38273766 -11.53804145 90.32608375 -10.41455078 72.32910156 C-9.47373661 62.65744955 -4.99692991 55.57089755 0.80859375 48.03515625 C1.46859375 47.04515625 2.12859375 46.05515625 2.80859375 45.03515625 C-0.78888175 45.03515625 -3.14054258 48.57920037 -5.62890625 50.97265625 Z M70.80859375 45.03515625 C71.18371094 45.49664062 71.55882812 45.958125 71.9453125 46.43359375 C82.43436572 59.80251297 85.41898024 73.31749648 83.80859375 90.03515625 C82.17490127 99.09884911 77.88095333 106.27118396 71.80859375 113.03515625 C70.8259334 114.21976684 69.84633119 115.40692725 68.87109375 116.59765625 C68.19046875 117.40203125 67.50984375 118.20640625 66.80859375 119.03515625 C76.09575687 120.3958851 76.09575687 120.3958851 84.421875 117.04296875 C86.72524392 114.1374394 88.75723675 111.12326023 90.80859375 108.03515625 C92.58256516 105.81635415 94.4444455 103.67833408 96.30859375 101.53515625 C97.23612375 100.4441927 98.1619174 99.35175045 99.0859375 98.2578125 C99.5382373 97.7230127 99.99053711 97.18821289 100.45654297 96.63720703 C102.60543775 94.09097237 104.74379591 91.53702331 106.87109375 88.97265625 C107.58394531 88.11542969 108.29679687 87.25820313 109.03125 86.375 C110.59899443 84.31109031 111.75722213 82.393933 112.80859375 80.03515625 C111.84373047 79.26945312 111.84373047 79.26945312 110.859375 78.48828125 C104.90393886 73.69674632 99.23915623 68.71929214 93.6652832 63.49487305 C89.3479163 59.47223771 84.87541294 55.7328379 80.24609375 52.0703125 C77.80859375 50.03515625 77.80859375 50.03515625 75.12109375 47.28125 C73.10677575 44.80291217 73.10677575 44.80291217 70.80859375 45.03515625 Z " fill="#000001" transform="translate(219.19140625,255.96484375)"/>
<path d="M0 0 C3.81823497 1.49734705 5.19919813 2.67105663 7.1875 6.25 C7.875 9.0625 7.875 9.0625 7.1875 12.25 C1.58773057 20.69438074 -7.3230477 27.27096932 -15.125 33.5625 C-19.93171048 37.44718985 -24.45073909 41.56446533 -28.95385742 45.7902832 C-33.32324655 49.86554741 -37.86510655 53.62652264 -42.5703125 57.3125 C-45.85067282 60.14709707 -47.62286251 61.8249024 -48.20703125 66.21484375 C-47.74163115 69.79519894 -46.84845322 71.10636652 -44.5 73.8125 C-43.77039063 74.67101562 -43.04078125 75.52953125 -42.2890625 76.4140625 C-41.47179687 77.34992188 -40.65453125 78.28578125 -39.8125 79.25 C-38.46153418 80.84002148 -37.11719784 82.4355093 -35.77270508 84.03100586 C-34.36439793 85.70006507 -32.94999356 87.36381886 -31.53515625 89.02734375 C-29.09314733 91.90728912 -26.69569791 94.82109667 -24.3125 97.75 C-20.92747047 101.90214054 -17.51157433 106.02603279 -14.0625 110.125 C-13.61455078 110.66060547 -13.16660156 111.19621094 -12.70507812 111.74804688 C-11.42518253 113.26376276 -10.11913251 114.75727134 -8.8125 116.25 C-8.13594864 117.12338516 -7.45939728 117.99677032 -6.76234436 118.8966217 C-2.56636027 122.24416709 0.74024812 121.93356524 5.96313477 121.84936523 C6.94255035 121.85330795 7.92196594 121.85725067 8.93106079 121.86131287 C12.16419841 121.86801855 15.39592005 121.83887015 18.62890625 121.80859375 C20.87661973 121.80434321 23.1243376 121.80201503 25.37205505 121.80152893 C30.08051473 121.79536415 34.78849857 121.77266541 39.49682617 121.73706055 C45.53522331 121.69176239 51.57318971 121.67703317 57.61174107 121.67332363 C62.25197099 121.66889711 66.89211032 121.65359729 71.53230095 121.6344471 C73.75906567 121.62556205 75.98584007 121.61883343 78.21261787 121.61428642 C81.32233081 121.60525326 84.43165261 121.5828707 87.54125977 121.55639648 C88.46344803 121.55573181 89.38563629 121.55506714 90.33576965 121.55438232 C91.18387207 121.5444072 92.03197449 121.53443207 92.90577698 121.52415466 C94.00771818 121.5171789 94.00771818 121.5171789 95.13192081 121.51006222 C100.05041479 120.88779748 102.29926131 118.20451781 105.25 114.4375 C106.42755859 112.95830078 106.42755859 112.95830078 107.62890625 111.44921875 C108.04414551 110.92634277 108.45938477 110.4034668 108.88720703 109.86474609 C111.10127585 107.11524343 113.39699755 104.43584397 115.6875 101.75 C119.76711694 96.94585323 123.8131676 92.11837794 127.7734375 87.21484375 C129.63057161 84.93399458 131.51142186 82.68376443 133.4140625 80.44140625 C134.5263612 79.10703712 135.63834259 77.77240343 136.75 76.4375 C137.2874585 75.81504395 137.82491699 75.19258789 138.37866211 74.55126953 C140.74360751 71.68100707 142.07219427 69.80443415 142.83984375 66.11328125 C141.94523257 62.18663459 140.22181527 60.8694357 137.1875 58.25 C136.12860377 57.24922615 135.07410839 56.24378087 134.0234375 55.234375 C127.84197461 49.43786122 121.58935964 43.85898771 114.96875 38.5625 C111.16572933 35.40043787 107.5820513 32.02451882 103.97705078 28.640625 C99.86676148 24.80814138 95.58756026 21.27623244 91.11328125 17.87109375 C87.89235021 15.15976235 87.21385428 13.52671994 86.8125 9.3125 C86.91288934 6.44347847 87.15512507 5.30630422 88.625 2.75 C91.76660437 0.91101207 93.85222753 0.19766561 97.5 0.34765625 C103.25524809 2.28001426 107.45646835 7.4455317 111.63574219 11.69433594 C113.76130992 13.82525438 115.99570124 15.81914901 118.25 17.8125 C121.91856954 21.1005372 125.56004178 24.41673766 129.1875 27.75 C132.83677171 31.10293117 136.49919598 34.43998357 140.1875 37.75 C141.85443488 39.24970193 143.52108369 40.74972187 145.1875 42.25 C145.6937793 42.70439453 146.20005859 43.15878906 146.72167969 43.62695312 C148.33884776 45.08074124 149.95105474 46.53987338 151.5625 48 C152.53960937 48.88171875 153.51671875 49.7634375 154.5234375 50.671875 C160.15878007 56.12543232 164.25471615 61.35831264 164.75 69.375 C164.26350717 81.87283314 155.39770231 91.17973569 147.9609375 100.484375 C144.2861314 105.08872415 140.78257295 109.80280588 137.3125 114.5625 C131.66048035 122.29599997 125.89263081 129.93326938 120.04345703 137.51879883 C118.81082303 139.12463183 117.59128377 140.74061509 116.3861084 142.36715698 C114.86698853 144.35904609 113.28398049 146.30322854 111.65292358 148.20454407 C103.86950084 157.59555216 102.75363202 165.0773851 102.9921875 177.0234375 C102.98699836 178.49847644 102.97731198 179.97350639 102.96313477 181.44848633 C102.94211624 186.84071831 103.00722459 192.23301037 103.0625 197.625 C103.10375 209.71125 103.145 221.7975 103.1875 234.25 C66.2275 234.25 29.2675 234.25 -8.8125 234.25 C-8.4375 197.9375 -8.4375 197.9375 -8.20947266 186.59643555 C-8.05649535 163.21489838 -8.05649535 163.21489838 -20.24365234 143.77661133 C-20.86181824 143.17136627 -21.47998413 142.56612122 -22.11688232 141.9425354 C-24.4186372 139.64496463 -26.28657195 137.10173758 -28.1875 134.46875 C-29.39464747 132.89492305 -30.60295261 131.32198327 -31.8125 129.75 C-38.08067943 121.56065636 -44.2471816 113.30392761 -50.3359375 104.98046875 C-52.77357219 101.65052302 -55.24097215 98.34507749 -57.7265625 95.05078125 C-58.68925049 93.7671167 -58.68925049 93.7671167 -59.67138672 92.45751953 C-60.89853297 90.82227507 -62.13159918 89.19145015 -63.37158203 87.56591797 C-67.60967388 81.89495333 -70.08146453 77.10661938 -70.1875 69.875 C-70.21585938 69.00101562 -70.24421875 68.12703125 -70.2734375 67.2265625 C-69.12399467 59.80388932 -64.8711343 54.7120319 -59.5625 49.6875 C-58.98185791 49.12305176 -58.40121582 48.55860352 -57.80297852 47.97705078 C-54.25848709 44.55454478 -50.639189 41.23298896 -46.88671875 38.0390625 C-44.22885797 35.74659501 -41.6454381 33.3759574 -39.0625 31 C-38.30102661 30.30028076 -38.30102661 30.30028076 -37.52416992 29.58642578 C-35.95292358 28.14169794 -34.38256552 26.69601096 -32.8125 25.25 C-18.7424534 12.29166078 -18.7424534 12.29166078 -12.8125 7.25 C-12.07257813 6.58484375 -11.33265625 5.9196875 -10.5703125 5.234375 C-4.81932406 0.31602125 -4.81932406 0.31602125 0 0 Z " fill="#4C99FD" transform="translate(208.8125,269.75)"/>
<path d="M0 0 C14.35546434 11.70990834 26.06794902 27.89121936 28.30664062 46.72021484 C29.21264682 60.20460704 30.02746647 75.72221983 23.06054688 87.89794922 C21.95263836 92.04543056 23.54790897 95.01909901 25.17382812 98.80224609 C25.64418991 99.96176033 25.64418991 99.96176033 26.12405396 101.1446991 C27.12709893 103.61436623 28.15195984 106.07404509 29.18164062 108.53271484 C30.20304795 110.98105281 31.21886342 113.4309989 32.21780396 115.88859558 C32.8387491 117.41568615 33.47241483 118.93768806 34.12081909 120.45332336 C36.15318045 125.44307636 36.73148214 129.32690634 36.30664062 134.72021484 C34.86914063 137.22021484 34.86914063 137.22021484 32.30664062 138.72021484 C26.07696289 139.49538237 20.82858621 138.27060601 15.05273438 136.06005859 C13.52346204 135.50855824 11.99416441 134.95712804 10.46484375 134.40576172 C8.09787342 133.53255586 5.73313608 132.65360921 3.36938477 131.77172852 C1.06045694 130.91601218 -1.25530091 130.08121941 -3.57226562 129.24755859 C-4.26832413 128.97991196 -4.96438263 128.71226532 -5.68153381 128.43650818 C-12.46548127 126.00704145 -17.8973799 127.02827934 -24.69335938 129.28271484 C-44.06676778 134.25530506 -64.98612562 131.05289554 -82.11523438 121.05224609 C-98.25594964 110.96212727 -108.97314377 95.23406484 -114.63085938 77.28271484 C-119.01249956 57.07239947 -115.82303984 35.97120445 -104.89111328 18.48388672 C-94.34285372 2.95175728 -77.813915 -8.84426497 -59.37304688 -12.84228516 C-38.1973527 -15.35998977 -17.42715153 -13.17086625 0 0 Z " fill="#FC7E7F" transform="translate(123.693359375,69.27978515625)"/>
<path d="M0 0 C14.35546434 11.70990834 26.06794902 27.89121936 28.30664062 46.72021484 C29.76601625 68.44058871 26.97909464 88.67535502 12.32739258 105.62890625 C-0.87957734 120.09489289 -17.32732525 130.10586173 -37.24804688 131.03271484 C-47.83912477 131.32800668 -57.43707871 131.04654265 -67.47460938 127.49755859 C-73.97468981 125.92775762 -80.05017738 127.94294781 -86.15820312 130.22412109 C-87.54936696 130.7224813 -88.9406466 131.22051833 -90.33203125 131.71826172 C-92.4839559 132.4988402 -94.63406584 133.28389648 -96.78198242 134.07543945 C-111.94930048 139.6385808 -111.94930048 139.6385808 -119.69335938 138.72021484 C-122.25585938 137.22021484 -122.25585938 137.22021484 -123.69335938 134.72021484 C-124.19764932 128.42480573 -123.06641603 124.26235305 -120.45507812 118.59130859 C-119.79226952 117.04594147 -119.13152702 115.49968685 -118.47265625 113.95263672 C-117.43541126 111.55555157 -116.38547473 109.16778915 -115.29760742 106.79321289 C-109.86433172 94.90650101 -109.86433172 94.90650101 -111.71289062 82.38037109 C-112.69078827 80.15340702 -113.68236861 77.93235193 -114.69335938 75.72021484 C-119.47585945 57.26672093 -115.47607252 36.48546437 -106.02539062 20.29833984 C-95.9352718 4.15762458 -80.20720937 -6.55956955 -62.25585938 -12.21728516 C-40.94019993 -16.83856634 -17.54585144 -13.26057573 0 0 Z " fill="#66CA6C" transform="translate(475.693359375,69.27978515625)"/>
<path d="M0 0 C14.35546434 11.70990834 26.06794902 27.89121936 28.30664062 46.72021484 C29.76609124 68.4417048 26.9781237 88.67335692 12.32788086 105.62866211 C10.07543697 108.09536189 7.72177382 110.410829 5.30664062 112.72021484 C4.15421875 113.82816406 4.15421875 113.82816406 2.97851562 114.95849609 C-0.68568563 118.16778801 -3.90226045 120.59034978 -8.60742188 121.93115234 C-16.07223891 124.2503188 -20.8983733 126.66158611 -24.77145386 133.80050659 C-28.34935415 140.89167628 -31.36525514 148.23302847 -34.22387695 155.63916016 C-35.70091354 158.73605362 -37.06906846 160.54126014 -39.69335938 162.72021484 C-41.69335938 163.25146484 -41.69335938 163.25146484 -43.69335938 163.22021484 C-44.68335938 163.23568359 -44.68335938 163.23568359 -45.69335938 163.25146484 C-48.61279062 162.47599092 -49.72738517 161.00243719 -51.69335938 158.72021484 C-53.1628418 155.63916016 -53.1628418 155.63916016 -54.54882812 152.04833984 C-60.31282804 135.64985828 -60.31282804 135.64985828 -72.24365234 124.16455078 C-75.07017258 123.11174258 -77.91096556 122.19023781 -80.81201172 121.36572266 C-85.5226201 119.74946927 -89.11451865 116.0565334 -92.69335938 112.72021484 C-93.3971875 112.09501953 -94.10101563 111.46982422 -94.82617188 110.82568359 C-103.11612426 103.08734401 -108.63939724 93.23378696 -112.69335938 82.72021484 C-113.17482422 81.47498047 -113.17482422 81.47498047 -113.66601562 80.20458984 C-119.37802694 62.03242362 -116.62420113 40.76099743 -108.13085938 24.03271484 C-98.31204028 5.98870699 -81.63429724 -6.10979517 -62.25585938 -12.21728516 C-40.94019993 -16.83856634 -17.54585144 -13.26057573 0 0 Z " fill="#FDDD65" transform="translate(299.693359375,21.27978515625)"/>
<path d="M0 0 C14.35546434 11.70990834 26.06794902 27.89121936 28.30664062 46.72021484 C29.76601625 68.44058871 26.97909464 88.67535502 12.32739258 105.62890625 C-0.87957734 120.09489289 -17.32732525 130.10586173 -37.24804688 131.03271484 C-47.83912477 131.32800668 -57.43707871 131.04654265 -67.47460938 127.49755859 C-73.97468981 125.92775762 -80.05017738 127.94294781 -86.15820312 130.22412109 C-87.54936696 130.7224813 -88.9406466 131.22051833 -90.33203125 131.71826172 C-92.4839559 132.4988402 -94.63406584 133.28389648 -96.78198242 134.07543945 C-111.94930048 139.6385808 -111.94930048 139.6385808 -119.69335938 138.72021484 C-122.25585938 137.22021484 -122.25585938 137.22021484 -123.69335938 134.72021484 C-124.19764932 128.42480573 -123.06641603 124.26235305 -120.45507812 118.59130859 C-119.79226952 117.04594147 -119.13152702 115.49968685 -118.47265625 113.95263672 C-117.43541126 111.55555157 -116.38547473 109.16778915 -115.29760742 106.79321289 C-109.86433172 94.90650101 -109.86433172 94.90650101 -111.71289062 82.38037109 C-112.69078827 80.15340702 -113.68236861 77.93235193 -114.69335938 75.72021484 C-119.47585945 57.26672093 -115.47607252 36.48546437 -106.02539062 20.29833984 C-95.9352718 4.15762458 -80.20720937 -6.55956955 -62.25585938 -12.21728516 C-40.94019993 -16.83856634 -17.54585144 -13.26057573 0 0 Z M-86.69335938 21.72021484 C-97.33467108 35.5352511 -101.15875646 50.19184942 -99.41992188 67.43115234 C-98.41490679 73.2905799 -96.23618064 78.34298399 -93.61914062 83.66552734 C-91.28346066 91.37228571 -94.92688891 98.50963192 -97.81835938 105.59521484 C-98.57788408 107.46481411 -99.33085669 109.33709318 -100.07617188 111.21240234 C-100.4102002 112.0307959 -100.74422852 112.84918945 -101.08837891 113.69238281 C-101.95763188 115.76188103 -101.95763188 115.76188103 -100.69335938 117.72021484 C-99.9423999 117.44234131 -99.19144043 117.16446777 -98.41772461 116.87817383 C-94.9944702 115.62181016 -91.56298734 114.38961998 -88.13085938 113.15771484 C-86.94943359 112.72007812 -85.76800781 112.28244141 -84.55078125 111.83154297 C-83.40029297 111.42226562 -82.24980469 111.01298828 -81.06445312 110.59130859 C-80.01185303 110.209021 -78.95925293 109.8267334 -77.87475586 109.43286133 C-72.37649926 108.20122822 -67.68624589 109.48433658 -62.63085938 111.72021484 C-50.13635982 117.22832486 -35.85589814 115.73437767 -23.33398438 111.21240234 C-18.39996634 109.19009023 -14.03021866 106.81200278 -9.69335938 103.72021484 C-8.68273437 103.01896484 -7.67210937 102.31771484 -6.63085938 101.59521484 C5.15223977 91.15110424 11.45627193 77.0050054 12.52539062 61.56005859 C12.95632201 46.4954157 8.03154402 32.53886159 -1.59570312 20.88037109 C-12.12752531 10.0347516 -26.51110094 2.67171362 -41.78076172 2.33984375 C-59.35551082 2.38479196 -74.64733597 8.66520828 -86.69335938 21.72021484 Z " fill="#000100" transform="translate(475.693359375,69.27978515625)"/>
<path d="M0 0 C14.35546434 11.70990834 26.06794902 27.89121936 28.30664062 46.72021484 C29.21264682 60.20460704 30.02746647 75.72221983 23.06054688 87.89794922 C21.95263836 92.04543056 23.54790897 95.01909901 25.17382812 98.80224609 C25.64418991 99.96176033 25.64418991 99.96176033 26.12405396 101.1446991 C27.12709893 103.61436623 28.15195984 106.07404509 29.18164062 108.53271484 C30.20304795 110.98105281 31.21886342 113.4309989 32.21780396 115.88859558 C32.8387491 117.41568615 33.47241483 118.93768806 34.12081909 120.45332336 C36.15318045 125.44307636 36.73148214 129.32690634 36.30664062 134.72021484 C34.86914063 137.22021484 34.86914063 137.22021484 32.30664062 138.72021484 C26.07696289 139.49538237 20.82858621 138.27060601 15.05273438 136.06005859 C13.52346204 135.50855824 11.99416441 134.95712804 10.46484375 134.40576172 C8.09787342 133.53255586 5.73313608 132.65360921 3.36938477 131.77172852 C1.06045694 130.91601218 -1.25530091 130.08121941 -3.57226562 129.24755859 C-4.26832413 128.97991196 -4.96438263 128.71226532 -5.68153381 128.43650818 C-12.46548127 126.00704145 -17.8973799 127.02827934 -24.69335938 129.28271484 C-44.06676778 134.25530506 -64.98612562 131.05289554 -82.11523438 121.05224609 C-98.25594964 110.96212727 -108.97314377 95.23406484 -114.63085938 77.28271484 C-119.01249956 57.07239947 -115.82303984 35.97120445 -104.89111328 18.48388672 C-94.34285372 2.95175728 -77.813915 -8.84426497 -59.37304688 -12.84228516 C-38.1973527 -15.35998977 -17.42715153 -13.17086625 0 0 Z M-86.69335938 21.72021484 C-97.61613004 35.90065395 -101.42787692 51.50601805 -99.41992188 69.11865234 C-95.92702211 84.73784564 -86.93159991 97.86024657 -73.69335938 106.72021484 C-64.13730288 111.97153834 -55.03391033 115.1205399 -44.13085938 115.15771484 C-42.96828613 115.16242798 -42.96828613 115.16242798 -41.78222656 115.16723633 C-34.94228137 115.02817328 -29.26542542 113.3833206 -22.92773438 110.91162109 C-17.09309455 108.76238783 -13.36957417 108.44071753 -7.49023438 110.59130859 C-6.34554687 111.00058594 -5.20085937 111.40986328 -4.02148438 111.83154297 C-2.84070313 112.26917969 -1.65992187 112.70681641 -0.44335938 113.15771484 C1.91516335 114.01293348 4.2744978 114.86591798 6.63476562 115.71630859 C7.67536133 116.09972412 8.71595703 116.48313965 9.78808594 116.87817383 C12.18017516 117.82590905 12.18017516 117.82590905 14.30664062 117.72021484 C13.0049008 112.97000637 11.57304856 108.31193807 9.73632812 103.73974609 C9.46062988 103.04558594 9.18493164 102.35142578 8.90087891 101.63623047 C8.34783606 100.25826137 7.7815366 98.88552203 7.20068359 97.51904297 C4.95668629 91.89438762 5.18996905 87.83819392 7.20898438 82.20068359 C7.72138672 81.06566406 7.72138672 81.06566406 8.24414062 79.90771484 C14.05672847 65.83068391 14.10219541 50.83113085 8.30664062 36.72021484 C1.49998522 21.57641347 -9.39482802 11.67039359 -24.83789062 5.72021484 C-47.15354126 -2.09484201 -70.66519279 4.34951807 -86.69335938 21.72021484 Z " fill="#010000" transform="translate(123.693359375,69.27978515625)"/>
<path d="M0 0 C14.35546434 11.70990834 26.06794902 27.89121936 28.30664062 46.72021484 C29.76609124 68.4417048 26.9781237 88.67335692 12.32788086 105.62866211 C10.07543697 108.09536189 7.72177382 110.410829 5.30664062 112.72021484 C4.15421875 113.82816406 4.15421875 113.82816406 2.97851562 114.95849609 C-0.68568563 118.16778801 -3.90226045 120.59034978 -8.60742188 121.93115234 C-16.07223891 124.2503188 -20.8983733 126.66158611 -24.77145386 133.80050659 C-28.34935415 140.89167628 -31.36525514 148.23302847 -34.22387695 155.63916016 C-35.70091354 158.73605362 -37.06906846 160.54126014 -39.69335938 162.72021484 C-41.69335938 163.25146484 -41.69335938 163.25146484 -43.69335938 163.22021484 C-44.68335938 163.23568359 -44.68335938 163.23568359 -45.69335938 163.25146484 C-48.61279062 162.47599092 -49.72738517 161.00243719 -51.69335938 158.72021484 C-53.1628418 155.63916016 -53.1628418 155.63916016 -54.54882812 152.04833984 C-60.31282804 135.64985828 -60.31282804 135.64985828 -72.24365234 124.16455078 C-75.07017258 123.11174258 -77.91096556 122.19023781 -80.81201172 121.36572266 C-85.5226201 119.74946927 -89.11451865 116.0565334 -92.69335938 112.72021484 C-93.3971875 112.09501953 -94.10101563 111.46982422 -94.82617188 110.82568359 C-103.11612426 103.08734401 -108.63939724 93.23378696 -112.69335938 82.72021484 C-113.17482422 81.47498047 -113.17482422 81.47498047 -113.66601562 80.20458984 C-119.37802694 62.03242362 -116.62420113 40.76099743 -108.13085938 24.03271484 C-98.31204028 5.98870699 -81.63429724 -6.10979517 -62.25585938 -12.21728516 C-40.94019993 -16.83856634 -17.54585144 -13.26057573 0 0 Z M-87.63085938 23.06787109 C-97.59839593 36.62286154 -101.44353597 51.10234087 -99.69335938 67.72021484 C-96.94449958 82.24419043 -88.85642861 95.66141085 -76.94335938 104.40771484 C-70.82841371 108.49365266 -64.23013919 111.68113873 -57.16992188 113.75537109 C-52.1845174 116.57296486 -50.91886203 120.26541113 -48.75585938 125.40771484 C-48.35818359 126.30039063 -47.96050781 127.19306641 -47.55078125 128.11279297 C-46.57691403 130.30692754 -45.62572204 132.50820114 -44.69335938 134.72021484 C-44.03335938 134.72021484 -43.37335938 134.72021484 -42.69335938 134.72021484 C-42.467854 134.1655957 -42.24234863 133.61097656 -42.01000977 133.03955078 C-40.95692393 130.5019562 -39.85726505 127.98719167 -38.75585938 125.47021484 C-38.40201172 124.59751953 -38.04816406 123.72482422 -37.68359375 122.82568359 C-35.61864328 118.20160648 -34.04510073 115.40866467 -29.31445312 113.31396484 C-27.78053515 112.76437841 -26.24025975 112.2321219 -24.69335938 111.72021484 C-8.20300849 104.25690948 2.65018142 94.87834279 9.30664062 77.64599609 C14.39723953 62.75201727 13.41451471 48.08447909 6.98632812 33.78271484 C-1.00813026 18.05591146 -13.50267259 9.55966753 -29.89257812 3.97021484 C-50.94530366 -1.80424702 -73.91996588 6.45446991 -87.63085938 23.06787109 Z " fill="#010100" transform="translate(299.693359375,21.27978515625)"/>
<path d="M0 0 C6.69809768 4.76229994 11.16407958 11.54657266 13.3125 19.4375 C14.63589593 30.16397224 12.19041124 39.59787827 5.75 48.3125 C0.70575043 53.70007545 -8.15971888 58.05495894 -15.5078125 58.67578125 C-22.90127368 58.84182825 -28.33208785 58.30391044 -34.6875 54.4375 C-35.73550781 53.81875 -35.73550781 53.81875 -36.8046875 53.1875 C-44.18628749 48.2850034 -48.33643302 40.86928111 -50.6875 32.4375 C-51.56805277 24.27702844 -50.98966839 17.4871591 -46.6875 10.4375 C-46.26339844 9.73882812 -45.83929688 9.04015625 -45.40234375 8.3203125 C-34.72335 -7.44533287 -15.737631 -9.39997249 0 0 Z " fill="#FCCE97" transform="translate(274.6875,309.5625)"/>
<path d="M0 0 C7.09590057 4.62210037 12.06537378 11.73386978 14 20 C14 22.31 14 24.62 14 27 C8.72 27 3.44 27 -2 27 C-2.37125 25.618125 -2.7425 24.23625 -3.125 22.8125 C-4.76032915 17.86757613 -6.69869074 15.8675395 -11 13 C-16.36950705 11.21016432 -21.19735333 11.11568276 -26.3125 13.625 C-30.93904037 17.71357056 -32.78593161 20.92965807 -34 27 C-39.28 27 -44.56 27 -50 27 C-50 17.3212714 -46.71439596 10.04048142 -40 3 C-27.64099958 -7.00701829 -13.86602541 -7.71692163 0 0 Z " fill="#040202" transform="translate(98,133)"/>
<path d="M0 0 C5.28 0 10.56 0 16 0 C16.37125 1.381875 16.7425 2.76375 17.125 4.1875 C18.75004042 9.12482376 20.74489133 11.10290473 25 14 C28.70981281 15.85490641 32.95123393 15.4540091 37 15 C40.94223152 12.99304577 43.79657642 10.85599126 46 7 C46.66 4.69 47.32 2.38 48 0 C53.28 0 58.56 0 64 0 C63.69711773 9.08646817 60.61338644 18.02942662 53.875 24.4375 C45.19950225 30.84899724 35.68451248 33.4694638 25 32 C21.68171232 31.08619462 18.93429474 29.78512228 16 28 C15.30132812 27.5875 14.60265625 27.175 13.8828125 26.75 C6.74701398 22.01075268 1.89831516 14.35258672 0 6 C0 4.02 0 2.04 0 0 Z " fill="#010201" transform="translate(400,132)"/>
<path d="M0 0 C21.12 0 42.24 0 64 0 C64 5.28 64 10.56 64 16 C42.88 16 21.76 16 0 16 C0 10.72 0 5.44 0 0 Z " fill="#000000" transform="translate(224,88)"/>
<path d="M0 0 C3.83663072 1.34929464 6.65172569 3.07751025 9.8125 5.625 C10.99779297 6.57246094 10.99779297 6.57246094 12.20703125 7.5390625 C12.79871094 8.02117187 13.39039063 8.50328125 14 9 C13.68546875 9.61875 13.3709375 10.2375 13.046875 10.875 C12.00171648 12.99651581 11.29340175 14.65278597 11 17 C11.31453125 17.59425781 11.6290625 18.18851563 11.953125 18.80078125 C13.96264384 23.02227045 13.70870435 27.4545169 13 32 C11.48389473 35.42600413 9.75829415 38.4378231 7 41 C2.18497681 41 1.00731581 39.86271681 -2.75 37 C-3.73484375 36.2575 -4.7196875 35.515 -5.734375 34.75 C-6.48203125 34.1725 -7.2296875 33.595 -8 33 C-7.690625 32.236875 -7.38125 31.47375 -7.0625 30.6875 C-6.32106407 28.81210323 -5.63771783 26.91315348 -5 25 C-5.65201255 23.65943972 -6.3207485 22.32696632 -7 21 C-8.00990541 14.83375061 -7.56228485 10.1204809 -4.0625 4.875 C-2.771749 3.16010151 -1.51704311 1.51704311 0 0 Z " fill="#000000" transform="translate(269,211)"/>
<path d="M0 0 C3.83663072 1.34929464 6.65172569 3.07751025 9.8125 5.625 C10.99779297 6.57246094 10.99779297 6.57246094 12.20703125 7.5390625 C12.79871094 8.02117187 13.39039063 8.50328125 14 9 C13.68546875 9.61875 13.3709375 10.2375 13.046875 10.875 C12.00171648 12.99651581 11.29340175 14.65278597 11 17 C11.31453125 17.59425781 11.6290625 18.18851563 11.953125 18.80078125 C13.96264384 23.02227045 13.70870435 27.4545169 13 32 C11.48389473 35.42600413 9.75829415 38.4378231 7 41 C2.18497681 41 1.00731581 39.86271681 -2.75 37 C-3.73484375 36.2575 -4.7196875 35.515 -5.734375 34.75 C-6.48203125 34.1725 -7.2296875 33.595 -8 33 C-7.690625 32.236875 -7.38125 31.47375 -7.0625 30.6875 C-6.32106407 28.81210323 -5.63771783 26.91315348 -5 25 C-5.65201255 23.65943972 -6.3207485 22.32696632 -7 21 C-8.00990541 14.83375061 -7.56228485 10.1204809 -4.0625 4.875 C-2.771749 3.16010151 -1.51704311 1.51704311 0 0 Z " fill="#000000" transform="translate(237,211)"/>
<path d="M0 0 C5.28 0 10.56 0 16 0 C16 5.28 16 10.56 16 16 C10.72 16 5.44 16 0 16 C0 10.72 0 5.44 0 0 Z " fill="#000000" transform="translate(440,96)"/>
<path d="M0 0 C5.28 0 10.56 0 16 0 C16 5.28 16 10.56 16 16 C10.72 16 5.44 16 0 16 C0 10.72 0 5.44 0 0 Z " fill="#000000" transform="translate(408,96)"/>
<path d="M0 0 C5.28 0 10.56 0 16 0 C16 5.28 16 10.56 16 16 C10.72 16 5.44 16 0 16 C0 10.72 0 5.44 0 0 Z " fill="#000000" transform="translate(88,96)"/>
<path d="M0 0 C5.28 0 10.56 0 16 0 C16 5.28 16 10.56 16 16 C10.72 16 5.44 16 0 16 C0 10.72 0 5.44 0 0 Z " fill="#000000" transform="translate(56,96)"/>
<path d="M0 0 C5.28 0 10.56 0 16 0 C16 5.28 16 10.56 16 16 C10.72 16 5.44 16 0 16 C0 10.72 0 5.44 0 0 Z " fill="#000000" transform="translate(264,48)"/>
<path d="M0 0 C5.28 0 10.56 0 16 0 C16 5.28 16 10.56 16 16 C10.72 16 5.44 16 0 16 C0 10.72 0 5.44 0 0 Z " fill="#000000" transform="translate(232,48)"/>
</svg>
